Patient4_TMGait_0pt7_02_right_29_EMG.mot
version=1
nRows=26
nColumns=33
inDegrees=no
endheader
time	1LAddLong	2LGlutMax	3LGlutMed	4LIliopsoas	5LSemiMemb	6LBicFemLong	7LRecFem	8LVastMed	9LVastLat	10LGasMed	11LTibAnt	12lTibPost	13LPeroneusLong	14LSol	15LExtDigLong	16LFlexDigLong	17RAddLong	18RGlutMax	19RGlutMed	20RIliopsoas	21RSemiMemb	22RBicFemLong	23RRecFem	24RVastMed	25RVastLat	26RGasMed	27RTibAnt	28RTibPost	29RPeroneusLong	30RSol	31RExtDigLong	32RFlexDigLong
33.738	-0.005341	-0.03006	0.019989	0.007782	-0.012207	0.15625	0.064392	0.006409	0.10559	0.051117	-0.024567	-0.003204	0.075073	0.11826	-0.14297	0.004883	0.059357	-0.03067	-0.41718	0.021057	-0.24689	0.044403	0.11139	-0.12985	0.00946	-0.027466	0.063782	-0.003204	-0.019379	-0.059814	0	-0.000305
33.739	0.004425	-0.042419	0.075531	0	-0.013123	-0.51727	0.10849	0.007477	0.12878	0.092621	-0.013733	0.001373	0.090942	0.13016	-0.26901	-0.005188	0.009918	0.10269	-0.34347	-0.047607	-0.26962	0.066376	0.048523	-0.028839	0.023041	-0.018311	0.15152	-0.004578	-0.006866	-0.06485	0.009155	0.003662
33.74	0.008087	-0.03006	0.051422	0.023956	-0.002136	-0.94086	0.14099	-0.001984	0.13214	0.096436	-0.044861	-0.002899	-0.02121	0.010986	-0.22781	0.001984	-0.013733	0.16052	0.51819	-0.12848	0.10559	0.019836	0.034637	0.012817	0.035858	-0.030365	0.21637	-0.007935	-0.00412	-0.074921	-0.00061	-0.000458
33.741	0.00824	-0.044861	0.098877	0.011597	-0.000153	-0.74402	0.11215	-0.00061	0.12528	0.1181	-0.021515	-0.011139	-0.10468	0.00885	-0.020447	0.003052	0.019531	0.10071	0.90271	-0.18601	0.23041	-0.059814	0.050507	-0.011749	0.033264	-0.027161	0.26337	-0.003357	0.045776	-0.084381	-0.000153	-0.001678
33.742	0.007629	-0.027924	0.061798	0.010223	0.002747	-0.24384	0.096588	0.003815	0.1033	-0.022125	0.018616	-0.007782	-0.10925	-0.091705	-0.02594	-0.002441	0.048065	0.10574	1.0391	-0.14954	0.1738	-0.18601	0.027771	-0.033722	0.018311	-0.041046	-0.15274	-0.008545	0.02533	-0.072479	0.00061	0.00061
33.743	-0.003967	-0.042877	0.042725	0.005188	0.00946	-0.13641	0.090637	0.005188	0.090942	-0.1416	0.078125	-0.000458	-0.32425	-0.1326	0.011444	0.009003	0.048065	-0.042114	0.93582	-0.11185	0.14175	-0.25787	0.043488	-0.046234	0.007477	-0.048676	0.009766	-0.007782	-0.048981	-0.031281	-0.003662	-0.00061
33.744	0.001221	-0.06546	0.005951	0.009613	0.014954	-0.11643	0.10727	0.005493	0.075989	-0.09903	0.087585	0.016022	-0.083923	-0.02533	0.15091	0.005188	0.042725	-0.13886	0.093231	-0.10132	-0.00824	-0.21881	0.036316	-0.046234	-0.00412	-0.053101	0.11169	-0.012817	-0.11124	-0.042877	-0.000153	-0.008087
33.745	0.001678	-0.023651	0.022583	0.00946	0.031586	-0.11185	0.093384	0.009613	0.068359	-0.064087	0.042419	-0.004272	0.33524	0.11276	0.1857	0.015564	0.057831	-0.15549	0.15427	-0.02243	-0.27939	-0.084534	0.038605	-0.050812	0.001526	-0.064087	0.11917	-0.010529	-0.056305	-0.080719	0.000763	-0.001678
33.746	-0.000153	-0.046082	0.047913	0.01709	0.011444	-0.12482	0.055695	0.012512	0.036621	-0.054932	0.036011	-0.009308	0.30304	0.13931	0.10284	0.009155	0.059509	-0.13306	0.24612	-0.18143	-0.3064	0.025635	0.089722	-0.037079	-0.023041	-0.062866	0.14664	-0.005188	0.02243	-0.091705	-0.003662	-0.001831
33.747	0.001831	-0.049744	0.016479	0.011139	-0.011597	0.04364	0.069122	0.002747	0.032806	-0.04364	-0.10651	-0.001068	0.35614	-0.011139	0.043182	-0.00061	0.061646	-0.11719	0.047607	-0.2243	-0.16266	0.027618	0.10437	-0.001068	-0.007477	-0.077209	0.039978	0.006714	0.009918	-0.10574	0	0.000153
33.748	-0.001984	-0.015564	-0.00473	0.030823	-0.016937	0.26825	0.080872	0.009918	0.025635	0.003204	0.051575	-0.005646	-0.14832	-0.054169	-0.006866	0.006714	0.032654	-0.10544	-0.14633	-0.024872	-0.11597	0.048828	0.1294	-0.02121	-0.015259	-0.088043	-0.098724	-0.00412	-0.020599	-0.087891	0.000305	-0.009308
33.749	-0.007935	-0.042725	-0.005035	0.030518	0.001373	0.26871	0.1001	0.002594	-0.000458	0.047607	-0.01709	-0.002899	-0.1799	0.028687	-0.046844	0.002747	0.018921	-0.035553	-0.20248	0.1709	-0.13641	0.09201	0.073395	0.00412	-0.012207	-0.090027	-0.31464	-0.010376	0.04715	-0.056458	-0.00412	-0.001984
33.75	0.008392	-0.027161	0.018921	0.026093	-0.003052	0.36926	0.12344	-0.000458	-0.041656	0.06546	-0.077515	-0.007629	-0.40405	-0.038147	0.000153	-0.007019	-0.03891	-0.038757	-0.1622	0.27588	-0.014343	0.2182	0.05249	0.045776	-0.016022	-0.10574	-0.34988	-0.009766	0.099182	-0.077972	0.001678	-0.013885
33.751	0.005798	-0.030823	0.004578	0.004425	0.014191	0.24445	0.12604	0.017853	-0.070648	0.025635	-0.054016	0.000305	-0.083618	-0.10803	0.041809	-0.004578	-0.036621	-0.10696	-0.16769	0.28427	0.19104	0.18982	0.049896	0.059204	0.029907	-0.10574	-0.045776	-0.010071	0.026398	-0.046997	-0.001373	-0.00824
33.752	0.001526	-0.044708	-0.003967	0.00351	0.021362	-0.093231	0.14175	0.022278	-0.084839	0.065308	0.02533	0.000305	-0.009308	-0.17746	0.040131	-0.001984	0.021973	-0.10635	-0.17502	0.11536	0.14481	0.12482	0.018463	0.024567	0.026245	-0.084229	0.016022	-0.010223	0.033112	-0.070648	-0.003662	-0.008087
33.753	-0.009155	-0.070038	-0.018616	-0.003357	0.007019	0.10468	0.10712	0.02655	-0.085297	0.067139	0.027618	-0.001373	0.095367	-0.15015	-0.028381	-0.002136	0.04425	-0.077972	-0.1088	-0.00824	0.08316	0.17975	0.020294	-0.050049	0.045929	-0.053864	0.03006	-0.010834	0.030823	-0.059509	0.000305	-0.007629
33.754	-0.010071	-0.077667	-0.035248	-0.009766	-0.004578	-0.21545	0.077972	0.021973	-0.044098	-0.07019	0.028839	-0.001068	0.083313	-0.099792	-0.00885	-0.000153	0.052338	-0.033875	-0.26566	-0.03067	0.022125	0.050659	-0.00885	-0.042419	0.04837	-0.005188	0.007324	-0.00473	0.024719	-0.021973	0.001373	-0.00946
33.755	0.004425	-0.11581	-0.024567	-0.012817	-0.011444	-0.45044	0.002289	0.052795	0.069122	-0.089874	0.047455	-0.003967	0.0177	-0.029755	-0.1091	-0.003662	0.027161	0.001984	-0.4335	-0.046692	-0.082855	-0.13138	0.001526	-0.040741	0.054016	0.029449	0.046844	-0.009003	-0.019989	0.02243	0.00061	-0.005035
33.756	0.007935	-0.096741	-0.0177	0.022278	0.005035	-0.30289	0.077667	-0.007477	0.062561	-0.03952	0.059509	-0.010529	-0.21423	-0.13672	-0.075989	-0.00473	0.00946	-0.02533	-0.46555	-0.089111	-0.121	-0.072174	0.00351	0.00412	0.069122	0.084381	0.0383	-0.010223	-0.028076	0.01236	0.007172	-0.002899
33.757	0.005188	-0.11047	-0.055695	0.029144	0.016632	-0.010376	0.14343	0.002289	0.047455	-0.019989	0.15289	0.006104	-0.16419	-0.068359	0.38147	-0.003662	-0.001678	0.023041	-0.44388	-0.010681	0.033112	-0.029144	-0.022888	0.074768	0.11414	0.14114	0.013428	-0.015259	-0.043945	0.002594	-0.000153	-0.003357
33.758	0.010681	-0.095673	-0.057831	0.062561	-0.003052	0.066223	0.12604	-0.008698	-0.00946	-0.026855	0.27756	0.007172	-0.2507	0.012207	-0.10086	0.003967	-0.016174	0.037384	-0.46341	0.085144	0.00946	0.020599	-0.042572	0.11261	0.12192	0.2977	-0.003815	-0.016632	-0.058441	0.038605	-0.000458	-0.000916
33.759	0.00946	-0.1181	-0.068512	0.045624	0.00061	0.22232	0.071106	0.011444	-0.013428	-0.043488	0.27573	0.009766	0.044098	-0.037537	0.10086	0.011902	-0.03067	0.060577	-0.47562	0.069427	-0.085754	0.051575	-0.037537	0.18021	0.12863	0.38605	-0.011292	-0.009918	-0.006104	-0.019531	0.002899	-0.000763
33.76	0.007782	-0.11017	-0.048981	0.013428	0.005951	0.60349	-0.046844	0.005493	0.12283	-0.072327	-0.058441	-0.000153	0.40375	0.04303	0.68344	0.005341	-0.018005	0.082855	-0.44449	0.031891	-0.035095	0.037537	-0.021362	0.17609	0.10468	0.3566	0.010681	-0.006256	-0.013428	-0.05127	0	0.004272
33.761	0.022888	-0.097961	-0.039978	0.001068	0.016632	0.48584	-0.071106	0.006714	0.13397	-0.094147	-0.25757	0.00412	-0.20462	0.14816	0.69534	0.003204	-0.015564	0.089417	-0.18356	-0.022736	0.013275	0.010071	0.021057	0.17319	0.10971	0.3183	0.024414	0.003357	-0.021667	-0.033569	0	0.000153
33.762	0.004578	-0.103	-0.001831	-0.010681	0.013123	-0.084686	0.015564	0.005493	0.043488	-0.035248	-0.23285	0.001373	0.003815	0.17044	-0.24017	-0.022583	-0.02182	0.11383	-0.24674	-0.016785	-0.090942	-0.052032	0.007019	0.13245	0.097809	0.3006	0.027924	-0.005646	0.005341	-0.026855	0.000763	-0.001984
33.763	0.003204	-0.089722	0.006409	-0.024719	0.005188	-0.081482	0.068512	0.008392	0.01709	-0.006104	-0.23285	0.002441	0.20004	0.18143	-0.44113	-0.015869	-0.020599	0.018005	-0.029602	-0.058594	-0.16815	-0.088196	-0.023956	0.085907	0.074463	0.25787	0.031281	-0.007629	0.013275	-0.017548	-0.001526	-0.006866
